<?xml version="1.0" standalone="no"?><!DOCTYPE svg PUBLIC "-//W3C//DTD SVG 1.1//EN" "http://www.w3.org/Graphics/SVG/1.1/DTD/svg11.dtd"><svg t="1676013535828" class="icon" viewBox="0 0 1024 1024" version="1.1" xmlns="http://www.w3.org/2000/svg" p-id="1029" xmlns:xlink="http://www.w3.org/1999/xlink" width="200" height="200"><path d="M814.037333 813.696a426.666667 426.666667 0 1 0-603.434666 0 426.666667 426.666667 0 0 0 603.434666 0z" fill="#FFD264" p-id="1030"></path><path d="M735.530667 147.797333A426.666667 426.666667 0 0 1 152.789333 741.461333 426.666667 426.666667 0 1 0 735.530667 147.797333z" fill="#FFC656" p-id="1031"></path><path d="M143.658667 557.056A396.117333 396.117333 0 0 1 853.845333 315.733333 396.16 396.16 0 1 0 196.266667 754.474667a394.282667 394.282667 0 0 1-52.608-197.418667z" fill="#FFD781" p-id="1032"></path><path d="M386.602667 435.669333c0 29.269333-14.08 52.992-31.445334 52.992s-31.445333-23.722667-31.445333-52.992 14.08-53.034667 31.445333-53.034666 31.445333 23.722667 31.445334 53.034666zM700.970667 435.669333c0 29.269333-14.08 52.992-31.445334 52.992s-31.445333-23.722667-31.445333-52.992 14.08-53.034667 31.445333-53.034666 31.445333 23.722667 31.445334 53.034666z" fill="#352B2B" p-id="1033"></path><path d="M86.016 494.592l172.16 99.370667 12.544-21.717334-182.656-105.472q-1.450667 13.866667-2.048 27.818667zM207.914667 810.965333l62.805333-36.266666-12.544-21.76-67.754667 39.125333c5.845333 6.442667 11.434667 12.714667 17.493334 18.901333zM936.576 466.432l-183.466667 105.813333 12.544 21.717334L938.666667 494.208q-0.597333-13.952-2.090667-27.776zM834.005333 792.32l-68.266666-39.381333-12.544 21.76 63.232 36.522666a404.437333 404.437333 0 0 0 17.578666-18.901333z" fill="#F1F1E7" p-id="1034"></path><path d="M256.298667 537.088m25.6 0l460.8 0q25.6 0 25.6 25.6l0 239.957333q0 25.6-25.6 25.6l-460.8 0q-25.6 0-25.6-25.6l0-239.957333q0-25.6 25.6-25.6Z" fill="#F9F9EE" p-id="1035"></path><path d="M320.298667 576m17.066666 0l358.4 0q17.066667 0 17.066667 17.066667l0 170.666666q0 17.066667-17.066667 17.066667l-358.4 0q-17.066667 0-17.066666-17.066667l0-170.666666q0-17.066667 17.066666-17.066667Z" fill="#FFFEF3" p-id="1036"></path><path d="M337.365333 605.866667h358.4v21.333333h-358.4zM337.365333 667.733333h358.4v21.333334h-358.4zM337.365333 729.6h358.4v21.333333h-358.4z" fill="#F9F9EE" p-id="1037"></path></svg>